<svg width="30" height="30" viewBox="0 0 30 30" fill="none" xmlns="http://www.w3.org/2000/svg">
<g clip-path="url(#clip0_38_1257)">
<path d="M10.0758 12.3489C11.1039 11.3208 11.1039 9.64807 10.0758 8.61999L6.46018 5.00434C5.90711 4.45122 5.14042 4.17096 4.35743 4.23542C3.58938 4.29864 2.89469 4.69016 2.45155 5.3095C2.35956 5.43805 2.27073 5.56848 2.18372 5.69997L9.4542 12.9705L10.0758 12.3489Z" fill="black"/>
<path d="M24.9955 23.5395L21.3798 19.9239C20.3519 18.8959 18.679 18.8958 17.6509 19.9239L17.0293 20.5455L24.3001 27.8163C24.4316 27.7292 24.5618 27.6401 24.6903 27.5481C25.3096 27.105 25.7011 26.4103 25.7644 25.6423C25.8289 24.8591 25.5486 24.0927 24.9955 23.5395Z" fill="black"/>
<path d="M14.5435 21.939C13.8392 21.939 13.1771 21.6648 12.6791 21.1668L8.83299 17.3207C8.335 16.8227 8.06066 16.1605 8.06066 15.4562C8.06066 15.0561 8.14943 14.6698 8.31713 14.3193L1.28576 7.28784C0.296696 9.36458 -0.140999 11.6913 0.0395866 14.0267C0.282926 17.1738 1.64007 20.1301 3.86113 22.3511L7.64875 26.1386C9.86969 28.3596 12.826 29.7168 15.9731 29.9602C16.317 29.9868 16.6606 30 17.0034 30C18.9882 30 20.941 29.5575 22.7119 28.7141L15.6804 21.6826C15.33 21.8503 14.9436 21.939 14.5435 21.939Z" fill="black"/>
<path d="M17.6952 0C17.2098 0 16.8163 0.393516 16.8163 0.878906C16.8163 1.3643 17.2098 1.75781 17.6952 1.75781C23.5107 1.75781 28.2421 6.48914 28.2421 12.3047C28.2421 12.7901 28.6356 13.1836 29.121 13.1836C29.6064 13.1836 29.9999 12.7901 29.9999 12.3047C29.9999 5.51988 24.48 0 17.6952 0Z" fill="black"/>
<path d="M17.6951 12.3039C17.6951 12.3039 17.6952 12.3042 17.6952 12.3047C17.6952 12.7901 18.0887 13.1836 18.5741 13.1836C19.0595 13.1836 19.453 12.7901 19.453 12.3047C19.453 11.3354 18.6644 10.5469 17.6952 10.5469C17.2098 10.5469 16.8163 10.94 16.8163 11.4254C16.8163 11.9108 17.2097 12.3039 17.6951 12.3039Z" fill="black"/>
<path d="M17.6952 8.78906C19.6337 8.78906 21.2108 10.3662 21.2108 12.3047C21.2108 12.7901 21.6043 13.1836 22.0897 13.1836C22.5751 13.1836 22.9686 12.7901 22.9686 12.3047C22.9686 9.39691 20.603 7.03125 17.6952 7.03125C17.2098 7.03125 16.8163 7.42477 16.8163 7.91016C16.8163 8.39555 17.2098 8.78906 17.6952 8.78906Z" fill="black"/>
<path d="M17.6952 3.51562C17.2098 3.51562 16.8163 3.90914 16.8163 4.39453C16.8163 4.87992 17.2098 5.27344 17.6952 5.27344C21.5722 5.27344 24.7264 8.42766 24.7264 12.3047C24.7264 12.7901 25.12 13.1836 25.6053 13.1836C26.0907 13.1836 26.4843 12.7901 26.4843 12.3047C26.4843 7.4584 22.5415 3.51562 17.6952 3.51562Z" fill="black"/>
</g>
<defs>
<clipPath id="clip0_38_1257">
<rect width="30" height="30" fill="white"/>
</clipPath>
</defs>
</svg>
